<?xml version="1.0" encoding="UTF-8"?>
<svg id="Calque_2" data-name="Calque 2" xmlns="http://www.w3.org/2000/svg" viewBox="0 0 1099.14 363.9">
  <defs>
    <style>
      .cls-1 {
        fill: #36aad0;
      }
    </style>
  </defs>
  <g id="Calque_1-2" data-name="Calque 1">
    <g>
      <path class="cls-1" d="M125.9,104.42v171.07h-45.33V132.18s17.94-23.89,45.33-27.76Z"/>
      <path class="cls-1" d="M248.61,277.77c-46.95,0-83.21-24.61-83.86-67.35h48.57c1.29,18.13,13.28,30.11,34.32,30.11s34-11.33,34-27.52c0-48.89-116.56-19.43-116.24-101.34,0-40.8,33.03-65.4,79.65-65.4s78.03,23.64,80.95,64.43h-49.86c-.97-14.89-12.95-26.55-32.38-26.87-17.81-.65-31.08,8.09-31.08,26.55,0,45.33,115.91,20.07,115.91,99.73,0,35.62-28.49,67.67-79.97,67.67Z"/>
      <path class="cls-1" d="M374.87,133.36h-21.37v-37.23h21.37V51.77h45.66v44.36h40.15v37.23h-40.15v86.77c0,11.98,4.86,17.16,19.1,17.16h21.05v38.21h-28.49c-34.32,0-57.31-14.57-57.31-55.69v-86.45Z"/>
      <path class="cls-1" d="M563.63,93.21c28.82,0,48.57,13.6,59.25,28.49v-25.58h45.66v179.38h-45.66v-26.23c-10.68,15.54-31.08,29.14-59.58,29.14-45.33,0-81.59-37.24-81.59-93.25s36.26-91.96,81.92-91.96Zm11.66,39.83c-24.28,0-47.27,18.13-47.27,52.13s22.99,53.42,47.27,53.42,47.6-18.78,47.6-52.78-22.66-52.78-47.6-52.78Z"/>
      <path class="cls-1" d="M783.14,93.21c28.17,0,48.57,12.95,59.25,28.49v-25.58h45.66v180.67c0,48.57-29.79,87.1-88.72,87.1-50.51,0-85.8-25.25-90.34-66.38h45.01c4.53,16.19,21.37,26.87,44.03,26.87,24.93,0,44.36-14.24,44.36-47.6v-27.84c-10.68,15.54-31.08,29.46-59.25,29.46-45.65,0-81.92-37.24-81.92-93.25s36.26-91.96,81.92-91.96Zm11.66,39.83c-24.28,0-47.27,18.13-47.27,52.13s22.99,53.42,47.27,53.42,47.6-18.78,47.6-52.78-22.66-52.78-47.6-52.78Z"/>
      <path class="cls-1" d="M1010.75,278.42c-52.13,0-90.01-36.26-90.01-92.6s36.91-92.6,90.01-92.6,88.39,35.29,88.39,88.72c0,5.83-.32,11.66-1.29,17.48h-131.13c2.27,26.55,20.4,41.44,43.06,41.44,19.43,0,30.11-9.71,35.94-21.69h48.89c-9.71,33.03-39.5,59.25-83.86,59.25Zm-43.71-109.44h85.16c-.65-23.64-19.43-38.53-42.74-38.53-21.69,0-38.85,13.92-42.42,38.53Z"/>
      <path class="cls-1" d="M143.92,90.71c-42.1-10.52-78.93,36.83-78.93,36.83l-10.81-21.63-4.97-9.95v-.05l-1.21-.39-27.73,4.26v-5.47c0-.53-.45-.97-.97-.97h-.03c-.53,0-.97,.45-.97,.97v5.79l-9.58,1.47c-6.1,.95-10.71-5.45-7.84-10.95L46.23,4.05c1.58-3,5-4.6,8.31-3.87l75.06,16.65c4.66,1.03,7.21,6.1,5.24,10.45l-13.08,28.97-14.68-20.79s-52.62-7.89-63.15,49.99l3.6,7.21,2.16,.66c11.66-54.99,62.65-47.33,62.65-47.33l14.68,20.79,16.89,23.94Z"/>
      <path class="cls-1" d="M18.29,100.11l1.97-.32v10.76c1.26,1.34,1.97,4.97,2.6,7.68,.74,3.82,1.34,6.26,1.66,12.97,.03,1.45-.05,2.87-.11,4.24h-.16c-.18-3.1-.24-6.03-.21-8.97,0-.05-.03-.08-.05-.05-.26,.13-.53,.26-.76,.37-.03,0-.05,.05-.05,.08-.05,2.47,.05,4.95,.45,7.81,.05,.42,0,.76-.13,.76s-.32-.37-.39-.79c-.55-2.95-.68-5.29-.61-7.58,0-.05-.03-.08-.05-.08-.21,.05-.42,.05-.61,.05-.03,0-.03,.03-.03,.08-.13,2.34,.05,4.79,.92,8.31h-.37c-.97-3.71-1.16-6.1-1-8.37,0-.05-.03-.08-.03-.08-.18-.05-.34-.11-.5-.16-.03-.03-.03,0-.03,.05-.18,2-.05,4.18,.79,7.6,.11,.5,.13,.95,0,.95s-.37-.47-.5-1c-.87-3.63-.95-5.84-.74-7.81,0-.03,0-.08-.03-.08-.13-.11-.26-.21-.39-.32t-.03,.03c-.24,1.92-.21,4.16,.63,7.92,.13,.66,.16,1.26,0,1.26s-.42-.63-.55-1.37c-.79-4-.79-6.31-.53-8.24,.03-.03,0-.08,0-.08-.11-.13-.24-.26-.34-.39t-.03,.03c-.29,1.95-.37,4.39,.37,8.63,.13,.74,.16,1.42,0,1.42s-.42-.71-.53-1.5c-.66-4.45-.55-7-.21-9v-.11c-.11-.13-.21-.24-.32-.37,0,0-.03,.03-.03,.05-.39,2.29-.55,5.34,.26,10.92h-.37c-.74-5.68-.55-8.84-.16-11.18v-.08c-.11-.11-.21-.21-.32-.29,0,0-.03,.03-.03,.08-.37,2.24-.61,5.18-.16,10.1,.05,.74,.03,1.37-.11,1.37s-.29-.63-.34-1.37c-.34-4.95-.11-7.97,.26-10.29v-.08c-.13-.05-.24-.08-.37-.11-.03,0-.03,.03-.03,.08-.34,2.39-.61,5.42-.39,10.16,.05,.87-.03,1.6-.18,1.6s-.32-.71-.34-1.53c-.13-4.6,.13-7.68,.42-10.16,.03-.05,0-.08,0-.08-.16,.05-.29,.11-.45,.21-.03,0-.05,.05-.05,.11-.26,2.55-.5,5.66-.42,10,.03,.79-.08,1.45-.24,1.45s-.29-.61-.32-1.32c0-3.95,.18-7,.37-9.66,0-.05,0-.08-.03-.05-.18,.16-.37,.37-.58,.61-.03,.03-.03,.08-.05,.13-.11,3.03-.24,6.34-.21,10.29h-.45c0-.18-.03-.37-.03-.53-.05-1.21-.08-2.45-.08-3.71,.45-11.6,2.74-17.47,4.37-20.02-.08-.11-.11-.26-.11-.39v-10.68Z"/>
      <path class="cls-1" d="M20.26,94.32v5.47l-1.97,.32v-5.79c0-.53,.45-.97,.97-.97h.03c.53,0,.97,.45,.97,.97Z"/>
      <path class="cls-1" d="M20.26,94.32v5.47l-1.97,.32v-5.79c0-.53,.45-.97,.97-.97h.03c.53,0,.97,.45,.97,.97Z"/>
    </g>
  </g>
</svg>