<?xml version="1.0" encoding="UTF-8"?>
<svg id="Calque_2" data-name="Calque 2" xmlns="http://www.w3.org/2000/svg" viewBox="0 0 763.97 239.26">
  <defs>
    <style>
      .cls-1 {
        fill: #fff;
      }
    </style>
  </defs>
  <g id="Calque_1-2" data-name="Calque 1">
    <g>
      <g>
        <path class="cls-1" d="M82.78,68.66v112.48h-29.81V86.91s11.8-15.71,29.81-18.25Z"/>
        <path class="cls-1" d="M163.46,182.63c-30.87,0-54.71-16.18-55.14-44.28h31.93c.85,11.92,8.73,19.8,22.57,19.8s22.35-7.45,22.35-18.09c0-32.15-76.64-12.77-76.43-66.63,0-26.82,21.71-43,52.37-43s51.31,15.54,53.22,42.36h-32.78c-.64-9.79-8.52-17.46-21.29-17.67-11.71-.43-20.44,5.32-20.44,17.46,0,29.8,76.21,13.2,76.21,65.57,0,23.42-18.73,44.49-52.58,44.49Z"/>
        <path class="cls-1" d="M246.48,87.68h-14.05v-24.48h14.05v-29.17h30.02v29.17h26.4v24.48h-26.4v57.05c0,7.88,3.19,11.28,12.56,11.28h13.84v25.12h-18.74c-22.56,0-37.68-9.58-37.68-36.62v-56.84Z"/>
        <path class="cls-1" d="M370.58,61.29c18.95,0,31.93,8.94,38.96,18.73v-16.82h30.02v117.94h-30.02v-17.24c-7.02,10.22-20.44,19.16-39.17,19.16-29.8,0-53.65-24.48-53.65-61.31s23.84-60.46,53.86-60.46Zm7.66,26.19c-15.97,0-31.08,11.92-31.08,34.28s15.11,35.13,31.08,35.13,31.29-12.35,31.29-34.7-14.9-34.7-31.29-34.7Z"/>
        <path class="cls-1" d="M514.91,61.29c18.52,0,31.93,8.52,38.96,18.73v-16.82h30.02v118.79c0,31.93-19.59,57.27-58.33,57.27-33.21,0-56.41-16.6-59.39-43.64h29.59c2.98,10.64,14.05,17.67,28.95,17.67,16.39,0,29.17-9.37,29.17-31.29v-18.31c-7.02,10.22-20.44,19.37-38.96,19.37-30.02,0-53.86-24.48-53.86-61.31s23.84-60.46,53.86-60.46Zm7.66,26.19c-15.97,0-31.08,11.92-31.08,34.28s15.11,35.13,31.08,35.13,31.29-12.35,31.29-34.7-14.9-34.7-31.29-34.7Z"/>
        <path class="cls-1" d="M664.56,183.06c-34.28,0-59.18-23.84-59.18-60.88s24.27-60.89,59.18-60.89,58.12,23.21,58.12,58.33c0,3.83-.21,7.66-.85,11.5h-86.22c1.49,17.46,13.41,27.25,28.31,27.25,12.77,0,19.8-6.39,23.63-14.26h32.15c-6.39,21.72-25.97,38.96-55.14,38.96Zm-28.74-71.95h55.99c-.43-15.54-12.77-25.33-28.1-25.33-14.26,0-25.55,9.15-27.89,25.33Z"/>
        <path class="cls-1" d="M94.63,59.64c-27.68-6.92-51.9,24.22-51.9,24.22l-7.11-14.22-3.27-6.54v-.03l-.8-.26-18.23,2.8v-3.6c0-.35-.29-.64-.64-.64h-.02c-.35,0-.64,.29-.64,.64v3.81l-6.3,.97c-4.01,.62-7.04-3.58-5.16-7.2L30.4,2.66c1.04-1.97,3.29-3.03,5.47-2.54l49.35,10.95c3.06,.67,4.74,4.01,3.44,6.87l-8.6,19.05-9.65-13.67s-34.6-5.19-41.52,32.87l2.37,4.74,1.42,.43c7.66-36.16,41.19-31.12,41.19-31.12l9.65,13.67,11.11,15.74Z"/>
        <path class="cls-1" d="M12.03,65.82l1.3-.21v7.08c.83,.88,1.3,3.27,1.71,5.05,.48,2.51,.88,4.12,1.09,8.53,.02,.95-.03,1.89-.07,2.79h-.1c-.12-2.04-.16-3.96-.14-5.9,0-.03-.02-.05-.03-.03-.17,.09-.35,.17-.5,.24-.02,0-.03,.03-.03,.05-.03,1.63,.03,3.25,.29,5.14,.03,.28,0,.5-.09,.5s-.21-.24-.26-.52c-.36-1.94-.45-3.48-.4-4.98,0-.03-.02-.05-.03-.05-.14,.03-.28,.03-.4,.03-.02,0-.02,.02-.02,.05-.09,1.54,.03,3.15,.61,5.47h-.24c-.64-2.44-.76-4.01-.66-5.5,0-.03-.02-.05-.02-.05-.12-.03-.22-.07-.33-.1-.02-.02-.02,0-.02,.03-.12,1.31-.03,2.75,.52,5,.07,.33,.09,.62,0,.62s-.24-.31-.33-.66c-.57-2.39-.62-3.84-.48-5.14,0-.02,0-.05-.02-.05-.09-.07-.17-.14-.26-.21t-.02,.02c-.16,1.26-.14,2.73,.42,5.21,.09,.43,.1,.83,0,.83s-.28-.42-.36-.9c-.52-2.63-.52-4.15-.35-5.41,.02-.02,0-.05,0-.05-.07-.09-.16-.17-.22-.26t-.02,.02c-.19,1.28-.24,2.89,.24,5.67,.09,.48,.1,.93,0,.93s-.28-.47-.35-.99c-.43-2.92-.36-4.6-.14-5.92v-.07c-.07-.09-.14-.16-.21-.24,0,0-.02,.02-.02,.03-.26,1.51-.36,3.51,.17,7.18h-.24c-.48-3.74-.36-5.81-.1-7.35v-.05c-.07-.07-.14-.14-.21-.19,0,0-.02,.02-.02,.05-.24,1.47-.4,3.41-.1,6.64,.03,.48,.02,.9-.07,.9s-.19-.42-.22-.9c-.22-3.25-.07-5.24,.17-6.76v-.05c-.09-.03-.16-.05-.24-.07-.02,0-.02,.02-.02,.05-.22,1.57-.4,3.56-.26,6.68,.03,.57-.02,1.06-.12,1.06s-.21-.47-.22-1c-.09-3.03,.09-5.05,.28-6.68,.02-.03,0-.05,0-.05-.1,.03-.19,.07-.29,.14-.02,0-.03,.03-.03,.07-.17,1.68-.33,3.72-.28,6.57,.02,.52-.05,.95-.16,.95s-.19-.4-.21-.86c0-2.59,.12-4.6,.24-6.35,0-.03,0-.05-.02-.03-.12,.1-.24,.24-.38,.4-.02,.02-.02,.05-.03,.09-.07,1.99-.16,4.17-.14,6.76h-.29c0-.12-.02-.24-.02-.35-.03-.8-.05-1.61-.05-2.44,.29-7.63,1.8-11.49,2.87-13.16-.05-.07-.07-.17-.07-.26v-7.02Z"/>
        <path class="cls-1" d="M13.32,62.01v3.6l-1.3,.21v-3.81c0-.35,.29-.64,.64-.64h.02c.35,0,.64,.29,.64,.64Z"/>
        <path class="cls-1" d="M13.32,62.01v3.6l-1.3,.21v-3.81c0-.35,.29-.64,.64-.64h.02c.35,0,.64,.29,.64,.64Z"/>
      </g>
      <path class="cls-1" d="M734.46,164.69c0-8.59,6.13-15.02,14.79-15.02s14.72,6.43,14.72,15.02-6.13,14.94-14.72,14.94-14.79-6.35-14.79-14.94Zm2.69,0c0,7.25,4.78,12.48,12.1,12.48s12.03-5.23,12.03-12.48-4.78-12.48-12.03-12.48-12.1,5.23-12.1,12.48Zm14.64,1.42l4.48,6.43-3.81,.07-4.11-6.35h-1.72v6.35h-3.21v-16.06h6.95c3.29,0,5.38,1.87,5.38,4.86,0,2.54-1.49,4.26-3.96,4.71Zm-5.16-6.65v4.11h3.51c1.34,0,2.39-.6,2.39-2.09s-1.05-2.02-2.39-2.02h-3.51Z"/>
    </g>
  </g>
</svg>